PathFileType	4	(X/Y/Z)	C:\Git\research_data\torsion_deformities_healthy_kinematics\simulations\TD07\pre\static_01\markers.trc
DataRate	CameraRate	NumFrames	NumMarkers	Units	OrigDataRate	OrigDataStartFrame	OrigNumFrames
200.000000	200.000000	4	34	mm	200.000000	0	120
Frame#	Time	C7			T10			CLAV			STRN			RBAK			LASI			RASI			SACR			RT1			RT2			RT3			RKNE			RS1			RS2			RS3			RANK			RHEE			RTOE			RM5D			LT1			LT2			LT3			LKNE			LS1			LS2			LS3			LANK			LHEE			LTOE			LM5D			RANKM			LANKM			RKNEM			LKNEM			
		X1	Y1	Z1	X2	Y2	Z2	X3	Y3	Z3	X4	Y4	Z4	X5	Y5	Z5	X6	Y6	Z6	X7	Y7	Z7	X8	Y8	Z8	X9	Y9	Z9	X10	Y10	Z10	X11	Y11	Z11	X12	Y12	Z12	X13	Y13	Z13	X14	Y14	Z14	X15	Y15	Z15	X16	Y16	Z16	X17	Y17	Z17	X18	Y18	Z18	X19	Y19	Z19	X20	Y20	Z20	X21	Y21	Z21	X22	Y22	Z22	X23	Y23	Z23	X24	Y24	Z24	X25	Y25	Z25	X26	Y26	Z26	X27	Y27	Z27	X28	Y28	Z28	X29	Y29	Z29	X30	Y30	Z30	X31	Y31	Z31	X32	Y32	Z32	X33	Y33	Z33	X34	Y34	Z34	

1	0	655.9409179687499	1225.762573242188	350.1304626464843	661.4085083007811	1004.226379394531	344.6714782714843	670.2905883789061	1199.73046875	223.2105712890625	670.4308471679686	1067.422241210938	155.3697052001953	755.6883544921874	1092.97265625	361.1284179687499	547.312744140625	796.5109252929688	204.1517181396484	803.151123046875	833.4305419921875	196.8971557617187	672.4296875	853.4181518554688	354.5128173828124	865.8568725585938	607.121337890625	308.1860046386718	863.6592407226562	546.5399169921875	336.4372253417968	875.5484008789062	545.5598754882812	287.1785888671874	881.8509521484375	442.1175537109376	297.9078063964843	915.1918334960938	350.6203613281251	349.8606567382812	921.6455688476562	287.9065551757813	376.3825378417968	937.8853149414062	292.7056579589844	326.0009460449218	962.0280151367188	87.24885559082037	322.0154113769531	922.8363037109375	45.93561553955084	358.6774597167968	978.9742431640625	47.49867248535162	167.4356994628906	1003.2587890625	34.396957397461	257.4668579101562	482.8617858886718	615.060791015625	252.4042358398437	473.5449218749999	559.2637329101562	288.1927185058593	482.3006591796874	550.6860961914062	237.4931640625	453.2557983398438	421.8059692382812	303.4173583984375	401.2080688476562	310.1968383789062	317.8970947265625	386.1292114257812	255.2577362060547	353.0931091308594	381.5346984863281	248.693832397461	302.1141357421875	348.6714477539062	71.31935119628909	334.9741821289062	387.0244140625	43.44816589355471	357.7625732421875	297.9473571777344	42.74024963378908	178.6417999267578	286.2113647460938	29.83332824707033	273.2878723144531	888.2008666992188	74.91131591796881	278.0764160156249	407.3124694824219	67.37260437011722	271.8078308105469	793.1177368164062	404.8214111328126	266.4319763183593	542.6539916992188	382.6863403320313	260.0816650390624	
2	0.005	655.8861694335936	1225.816650390625	350.1021728515624	661.4329223632811	1004.240600585938	344.6929626464843	670.2542114257811	1199.741577148438	223.2084808349609	670.4348144531249	1067.431396484375	155.3506164550781	755.7023315429686	1093.05517578125	361.1283874511718	547.3170776367188	796.52490234375	204.2477264404297	803.1578369140625	833.4254150390625	197.0025482177734	672.42236328125	853.430419921875	354.6112365722656	865.8418579101562	607.122314453125	308.2748413085937	863.6611938476562	546.5482177734375	336.4544677734374	875.5501708984375	545.5635986328125	287.2605590820312	881.8450317382812	442.1208496093751	297.9786071777343	915.2080688476562	350.6102294921876	349.9388427734374	921.662109375	287.8802795410157	376.4161071777343	937.8845825195312	292.7129821777344	326.0383300781249	962.0379638671875	87.24968719482428	322.0147399902343	922.8409423828125	45.93512344360357	358.6828918457031	978.9736938476562	47.50398635864263	167.4366302490234	1003.252197265625	34.39727401733405	257.4808349609374	482.8523254394531	615.0716552734375	252.4892578125	473.5311279296874	559.2680053710938	288.2716674804687	482.3119201660156	550.688232421875	237.5805969238281	453.2449645996094	421.8081359863281	303.4663696289062	401.1984252929688	310.1951904296875	317.9299926757812	386.1270751953125	255.2621612548828	353.1095886230469	381.5286865234375	248.6951293945313	302.1382446289062	348.6719665527344	71.31600189208987	334.9775695800781	387.0272216796875	43.44281005859377	357.7596435546875	297.9463195800781	42.73910140991213	178.6438446044922	286.2112731933594	29.83010482788088	273.2900085449219	888.2081298828125	74.91478729248053	278.0844726562499	407.3108520507812	67.37718200683597	271.8119506835938	793.110107421875	404.8214416503907	266.4961547851562	542.6444702148438	382.6986389160157	260.1357421874999	
3	0.01	655.8320922851561	1225.870239257812	350.0739135742187	661.4573364257811	1004.254638671875	344.7139587402343	670.2180786132811	1199.752685546875	223.2056427001953	670.4379882812499	1067.440551757812	155.3312225341797	755.7162475585936	1093.136596679688	361.1276550292968	547.321044921875	796.5388793945312	204.3425750732422	803.1640625	833.4202880859375	197.1056518554687	672.41552734375	853.4425048828125	354.7079467773437	865.826904296875	607.1233520507812	308.3617248535156	863.6622924804688	546.556396484375	336.4721984863281	875.5517578125	545.5672607421875	287.3407592773437	881.839111328125	442.1241760253907	298.0480041503906	915.2240600585938	350.6003112792969	350.0155639648437	921.6783447265625	287.8545837402344	376.4489135742187	937.8838500976562	292.7202758789063	326.0749206542968	962.0477294921875	87.25054168701178	322.0140686035156	922.8455200195312	45.93463516235357	358.6882324218749	978.9730834960938	47.50918960571295	167.4375457763671	1003.245788574219	34.39759445190436	257.4944763183593	482.8428344726562	615.0824584960938	252.5732269287109	473.5173950195312	559.272216796875	288.3495788574218	482.3226013183593	550.6904907226562	237.6668395996093	453.2342224121094	421.8102722167969	303.5146484375	401.1888732910156	310.1935729980469	317.9623718261719	386.1249694824219	255.2665557861328	353.1257629394531	381.5227355957031	248.6964263916016	302.1619873046875	348.6725769042969	71.3127136230469	334.9808654785156	387.0299987792969	43.43754959106447	357.7567138671875	297.9453125	42.73796844482424	178.6458740234375	286.211181640625	29.82693672180178	273.2920837402344	888.2152709960938	74.91819000244146	278.0924072265624	407.3092346191406	67.38169097900393	271.8159790039062	793.1024169921875	404.8214721679688	266.5592346191406	542.6349487304688	382.7108154296876	260.1889343261718	
4	0.015	655.7787475585936	1225.92333984375	350.0456542968749	661.4818115234374	1004.2685546875	344.7344360351562	670.1820678710936	1199.763671875	223.2020874023437	670.4404296874999	1067.449829101562	155.3115081787109	755.7300415039061	1093.216918945312	361.1261596679687	547.3246459960938	796.552734375	204.4362487792968	803.169921875	833.4152221679688	197.2064666748046	672.4090576171875	853.4544067382812	354.8029479980468	865.81201171875	607.12451171875	308.4466552734374	863.6625366210938	546.5645141601562	336.4904479980468	875.55322265625	545.5709228515625	287.4191284179687	881.8331909179688	442.1275024414063	298.1160278320312	915.23974609375	350.5906372070313	350.0908508300781	921.6943359375	287.8294372558594	376.4808959960937	937.883056640625	292.7275085449219	326.1106872558593	962.0573120117188	87.2514266967774	322.0133972167968	922.8500366210938	45.93415832519537	358.6934814453124	978.9725341796875	47.51427841186529	167.4384765624999	1003.239501953125	34.39791870117194	257.5078430175781	482.8332824707031	615.0932006835938	252.6561431884765	473.5037841796874	559.2764892578125	288.4264831542968	482.3327331542968	550.69287109375	237.7518768310547	453.2235412597656	421.8124084472656	303.5621337890625	401.1794128417969	310.1919860839844	317.9942321777344	386.1229248046875	255.2708892822266	353.1416625976562	381.516845703125	248.6976928710938	302.1853332519531	348.6732788085938	71.30947113037112	334.9840698242188	387.0327758789062	43.43238830566408	357.7538146972656	297.9442749023438	42.73683929443362	178.6478424072265	286.2110900878906	29.82382392883303	273.2941284179688	888.2222290039062	74.92152404785162	278.1002502441406	407.3077087402344	67.38612365722659	271.8198852539062	793.0947265625	404.8215026855469	266.6211853027343	542.6254272460938	382.7228698730469	260.2412414550781	
